<svg width="19" height="18" viewBox="0 0 19 18" fill="none" xmlns="http://www.w3.org/2000/svg">
<g clip-path="url(#clip0_323_6374)">
<path d="M18.334 3.41779C17.6717 3.71179 16.96 3.90978 16.213 3.99903C16.9757 3.54228 17.5615 2.81854 17.8367 1.95604C17.1235 2.37904 16.333 2.68654 15.4915 2.85229C14.8187 2.13454 13.858 1.68604 12.796 1.68604C10.4117 1.68604 8.65973 3.91054 9.19823 6.21978C6.12998 6.06603 3.40898 4.59604 1.58723 2.36179C0.619734 4.02154 1.08548 6.19278 2.72948 7.29228C2.12498 7.27278 1.55498 7.10703 1.05773 6.83028C1.01723 8.54103 2.24348 10.1415 4.01948 10.4978C3.49973 10.6388 2.93048 10.6718 2.35148 10.5608C2.82098 12.0278 4.18448 13.095 5.80148 13.125C4.24898 14.3423 2.29298 14.886 0.333984 14.655C1.96823 15.7028 3.90998 16.314 5.99498 16.314C12.8515 16.314 16.7252 10.5233 16.4912 5.32953C17.2127 4.80828 17.839 4.15804 18.334 3.41779V3.41779Z" fill="black"/>
</g>
<defs>
<clipPath id="clip0_323_6374">
<rect width="18" height="18" fill="white" transform="translate(0.333984)"/>
</clipPath>
</defs>
</svg>
